<?xml version="1.0" encoding="utf-8"?>
<!-- Generator: Adobe Illustrator 20.0.0, SVG Export Plug-In . SVG Version: 6.00 Build 0)  -->
<svg version="1.1" id="Laag_1" xmlns="http://www.w3.org/2000/svg" xmlns:xlink="http://www.w3.org/1999/xlink" x="0px" y="0px"
	 viewBox="0 0 256 256" style="enable-background:new 0 0 256 256;" xml:space="preserve">
<style type="text/css">
	.st0{fill:#FFFFFF;}
</style>
<g>
	<path d="M122,0c4,0,8,0,12,0c4.4,0.7,8.8,1.5,13.2,2.1c53.3,8.3,95.2,48.2,105.6,100.8c1.3,6.3,2.1,12.7,3.2,19.1c0,4,0,8,0,12
		c-0.7,4.4-1.5,8.8-2.1,13.2c-8,51.7-45.5,92.5-96.4,104.6c-7.7,1.8-15.6,2.8-23.4,4.2c-4,0-8,0-12,0c-4.4-0.7-8.8-1.5-13.2-2.1
		c-53.3-8.3-95.1-48.1-105.6-100.8C1.9,146.8,1.1,140.4,0,134c0-4,0-8,0-12c0.7-4.4,1.5-8.8,2.1-13.2C10.4,55.5,50.3,13.7,102.9,3.2
		C109.2,1.9,115.6,1,122,0z M127.9,139.6c-34.3,0-64.4,20.8-76.6,52.6c-1.6,4.1-1.2,6.9,2,10.1c40.6,41.3,109.2,41.2,149.7-0.1
		c3-3.1,3.5-5.7,2-9.7C192.7,160.5,162.4,139.6,127.9,139.6z M163.4,81.8c0-19.9-15.5-35.8-35.2-36c-19.3-0.2-35.5,15.8-35.6,35.1
		c-0.1,20.1,15.7,36.3,35.4,36.2C147.4,117.1,163.3,101.2,163.4,81.8z"/>
	<path class="st0" d="M134,256c7.8-1.4,15.7-2.3,23.4-4.2c50.9-12.1,88.4-52.9,96.4-104.6c0.7-4.4,1.4-8.8,2.1-13.2
		c0,40.7,0,81.3,0,122C215.3,256,174.7,256,134,256z"/>
	<path class="st0" d="M122,0c-6.4,1-12.8,1.9-19.1,3.2C50.3,13.7,10.4,55.5,2.1,108.8c-0.7,4.4-1.4,8.8-2.1,13.2C0,81.3,0,40.7,0,0
		C40.7,0,81.3,0,122,0z"/>
	<path class="st0" d="M256,122c-1.1-6.4-1.9-12.8-3.2-19.1C242.4,50.3,200.5,10.4,147.2,2.1c-4.4-0.7-8.8-1.4-13.2-2.1
		c40.7,0,81.3,0,122,0C256,40.7,256,81.3,256,122z"/>
	<path class="st0" d="M0,134c1.1,6.4,1.9,12.8,3.2,19.1c10.5,52.7,52.3,92.5,105.6,100.8c4.4,0.7,8.8,1.4,13.2,2.1
		c-40.6,0-81.2,0-122,0C0,215.3,0,174.7,0,134z"/>
	<path class="st0" d="M127.9,139.6c34.5,0,64.8,20.9,77,52.9c1.5,4,1.1,6.6-2,9.7c-40.5,41.4-109,41.4-149.7,0.1
		c-3.2-3.2-3.6-6-2-10.1C63.5,160.4,93.6,139.6,127.9,139.6z"/>
	<path class="st0" d="M163.4,81.8c0,19.4-16,35.3-35.3,35.3c-19.7,0-35.5-16.1-35.4-36.2c0.1-19.3,16.3-35.2,35.6-35.1
		C147.8,46,163.4,61.9,163.4,81.8z"/>
</g>
</svg>
