<?xml version="1.0" encoding="utf-8"?>
<!-- Generator: Adobe Illustrator 20.0.0, SVG Export Plug-In . SVG Version: 6.00 Build 0)  -->
<svg version="1.1" id="Laag_1" xmlns="http://www.w3.org/2000/svg" xmlns:xlink="http://www.w3.org/1999/xlink" x="0px" y="0px"
	 viewBox="0 0 352.9 78.6" style="enable-background:new 0 0 352.9 78.6;" xml:space="preserve">
<style type="text/css">
	.st0{clip-path:url(#SVGID_2_);fill:#E52721;}
	.st1{fill:#2B2B2B;}
	.st2{fill:#FEFEFE;}
</style>
<g>
	<g>
		<defs>
			<rect id="SVGID_1_" y="0" width="352.9" height="78.6"/>
		</defs>
		<clipPath id="SVGID_2_">
			<use xlink:href="#SVGID_1_"  style="overflow:visible;"/>
		</clipPath>
		<path class="st0" d="M45.2,22.5c0,11.3,0,22.2,0,33.5c9.8-5.6,19.3-11.1,29.1-16.7C64.5,33.6,54.9,28.1,45.2,22.5L45.2,22.5z
			 M74.8,0c0.5,0.7,1.2,0.3,1.7,0.3c6.6,0.3,13.2,0.5,19.7,1.3c8.9,1.1,13.3,5.3,14.7,14.2c1.7,11.5,1.8,23.1,1.2,34.7
			c-0.2,4.6-0.6,9.2-1.5,13.7c-1.4,7.4-6,11.7-13.4,12.6c-12.3,1.5-24.6,1.6-37,1.7c-12.6,0.1-25.3-0.2-37.9-1
			c-2.9-0.2-5.7-0.5-8.5-1C7.7,75.4,3.4,71.3,2.1,65.2C1,60.3,0.7,55.4,0.4,50.5c0-0.5,0.3-1.2-0.4-1.6c0-6.4,0-12.9,0-19.3
			c0.6-0.4,0.3-1,0.4-1.6c0.3-4.3,0.6-8.7,1.4-13c1.4-8,5.9-12.4,14-13.4c6.4-0.8,12.9-1,19.4-1.3c0.6,0,1.3,0.3,1.7-0.3
			C49.5,0,62.1,0,74.8,0L74.8,0z"/>
	</g>
	<path class="st1" d="M334.3,39.9c0,1.4,0,3,0,4.6c0,0.7,0.1,1.1,0.9,1.1c2.1,0,4.2,0,6.4,0c0.5,0,0.9,0,0.9-0.7
		c-0.1-3.9,0.2-7.8-0.6-11.6c-0.4-2-1.7-2.9-3.7-2.8c-1.7,0-2.6,0.9-3.1,2.8C334.4,35.3,334.5,37.5,334.3,39.9L334.3,39.9z
		 M352.9,61.7c-0.7,0.5-0.3,1.3-0.4,1.9c-1,5.3-4.1,8.4-9.3,9.5c-3.3,0.7-6.6,0.7-9.9-0.2c-5-1.4-7.4-5.1-8.5-9.8
		c-0.4-1.7-0.8-3.5-0.9-5.2c-0.2-8.2-1-16.4,0.8-24.5c1.6-7.1,5.6-10.3,13-10.6c1.6-0.1,3.2-0.1,4.8,0.2c5.7,1,8.6,4.2,9.8,10.1
		c0.2,1.1,0.1,2.2,0.7,3.2c0,5.3,0,10.6,0,15.9c-5.9,0-11.8-0.1-17.7-0.1c-0.5,0-0.9,0.1-0.9,0.8c0.1,3.6-0.1,7.1,0.7,10.6
		c0.4,1.9,1.7,2.8,3.6,2.9c1.9,0,3.1-0.8,3.7-2.7c0.5-1.4,0.7-2.9,0.7-4.4c0-0.9,0.1-1.4,1.2-1.3c2.5,0.2,5,0.3,7.6,0.4
		c0.6,0,0.8,0.4,1.2,0.7C352.9,59.8,352.9,60.8,352.9,61.7L352.9,61.7z"/>
	<path class="st1" d="M307.4,48.9c0-2.8,0.1-5.5,0-8.3c-0.1-2.6-0.2-5.2-1.1-7.6c-0.8-2.3-3-3.1-5.1-1.8c-1.8,1.1-2.8,2.7-2.8,5
		c0,8.5,0,17,0,25.5c0,2.1,1.1,3.4,3.1,3.8c2.2,0.5,3.7-0.3,4.6-2.3c0.3-0.8,0.6-1.6,0.7-2.5C307.4,56.8,307.3,52.9,307.4,48.9
		L307.4,48.9z M298.2,28.9c2-3.1,4.3-5.2,7.6-5.9c4.9-1.2,9.1,0.9,10.9,5.6c1.1,2.8,1.5,5.8,1.6,8.8c0.4,7.9,0.7,15.7-0.3,23.6
		c-0.3,2.3-0.8,4.5-1.7,6.6c-1.4,3.3-3.6,5.8-7.4,6.1c-4.1,0.4-7.7-0.9-10.3-4.3c-0.2-0.3-0.5-0.6-0.8-1.1c-0.2,0.4-0.3,0.7-0.4,1
		c-0.9,3.7-0.9,3.7-4.6,3.7c-1.3,0-2.6-0.1-4,0c-1.2,0.1-1.5-0.4-1.5-1.5c0-10.5,0-21,0-31.5c0-11.7,0-23.4,0-35.1
		c0-1.6,0.5-1.9,1.9-1.8c2.3,0.1,4.7,0.2,7.1,0c1.7-0.1,1.9,0.5,1.9,2C298.2,12.8,298.2,20.6,298.2,28.9L298.2,28.9z"/>
	<path class="st1" d="M214.1,66.8c-2,3.6-4.4,5.9-8,6.8c-6.4,1.6-11.2-1.7-12.1-8.2c-0.2-1.8-0.3-3.5-0.3-5.3c0-11.5,0-23.1,0-34.6
		c0-1.3,0.3-1.8,1.7-1.7c2.7,0.1,5.4,0.1,8.1,0c1.2,0,1.5,0.4,1.5,1.5c0,11.2,0,22.4,0,33.6c0,1.7,0,3.4,0.5,5.1
		c0.4,1.3,1.3,2,2.7,2c2.7,0,4.6-1.9,4.6-4.6c0-12,0-24,0-36c0-1.3,0.3-1.6,1.6-1.6c2.8,0.1,5.6,0.1,8.4,0c1,0,1.2,0.3,1.2,1.3
		c0,15.6,0,31.2,0,46.8c0,0.8-0.1,1.3-1.1,1.2c-2.2-0.1-4.5-0.1-6.7,0c-0.8,0-1.1-0.3-1.1-1.1C214.7,70.5,214.4,68.9,214.1,66.8
		L214.1,66.8z"/>
	<path class="st1" d="M271,66.8c-1.8,3.3-3.9,5.5-7.1,6.5c-6.9,2.2-12.3-1.5-13.1-8.7c-0.3-3.2-0.3-6.4-0.3-9.6c0-9.9,0-19.8,0-29.6
		c0-1.4,0.4-1.7,1.7-1.7c2.7,0.1,5.4,0.1,8.1,0c1.2,0,1.5,0.3,1.5,1.5c0,11.3,0,22.6,0,33.9c0,1.5-0.1,3,0.4,4.4
		c0.5,1.8,1.4,2.4,3.3,2.3c2.4-0.2,4.1-2,4.1-4.4c0-12,0-24,0-36c0-1.3,0.2-1.8,1.7-1.7c2.8,0.1,5.5,0.1,8.3,0c1,0,1.4,0.2,1.4,1.3
		c0,15.6,0,31.1,0,46.7c0,1-0.2,1.4-1.3,1.4c-2.1-0.1-4.2-0.1-6.4,0c-0.8,0-1.2-0.1-1.3-1.1C271.7,70.4,271.4,68.9,271,66.8
		L271,66.8z"/>
	<path class="st1" d="M168.6,48.3c0,3.2-0.1,6.3,0,9.5c0.1,2.1,0.2,4.2,1,6.2c0.5,1.3,1.5,2.1,3,2.2c1.5,0.1,2.5-0.8,3.1-2.1
		c0.5-1.1,0.7-2.3,0.8-3.5c0.6-7.4,0.3-14.8,0.2-22.2c0-2-0.2-4-1-5.9c-0.6-1.3-1.6-2.1-3.1-2.1c-1.5,0-2.5,0.8-3,2.1
		c-0.4,1.1-0.6,2.2-0.8,3.3C168.3,40,168.6,44.1,168.6,48.3L168.6,48.3z M188,49.6c-0.1,3.4,0,7.9-0.9,12.4
		c-1.7,8.3-6.1,11.9-14.5,11.8c-1.8,0-3.5-0.2-5.3-0.6c-5.4-1.3-8-5.1-9.2-10.2c-0.5-2.2-0.8-4.4-0.8-6.6
		c-0.2-7.3-0.6-14.6,0.8-21.8c1.9-9.5,8.1-12.5,17-11.7c7,0.7,10.9,4.2,12.3,13.7C188,40.6,188.1,44.5,188,49.6L188,49.6z"/>
	<path class="st1" d="M123.7,5.5c3.5,0,6.9,0,10.2,0c1,0,0.9,0.7,1.1,1.2c2.2,10.6,4.8,21.2,6.6,31.9c0,0.1,0.1,0.2,0.2,0.4
		c1.1-5.3,2.2-10.6,3.3-15.9c1.2-5.5,2.5-11,3.7-16.6c0.2-0.7,0.3-1.1,1.1-1.1c3.3,0,6.6,0,10.2,0c-1.1,3.9-2.1,7.6-3.2,11.3
		c-3.1,11.1-6.2,22.1-9.3,33.2c-0.2,0.8-0.2,1.6-0.2,2.4c0,6.3,0,12.5,0,18.8c0,1.4-0.3,1.9-1.8,1.8c-2.5-0.1-5.1-0.1-7.6,0
		c-1.3,0.1-1.8-0.3-1.7-1.7c0.1-3.7-0.1-7.4,0.1-11c0.4-6.1-0.8-11.9-2.4-17.7c-3.5-12-6.7-24.1-10.1-36.2
		C123.8,6.2,123.8,5.9,123.7,5.5L123.7,5.5z"/>
	<path class="st1" d="M243,43.8c0,9.2,0,18.4,0,27.6c0,1.4-0.4,1.7-1.7,1.7c-2.5-0.1-4.9-0.1-7.4,0c-1.4,0.1-1.8-0.4-1.8-1.8
		c0.1-15.4,0-30.8,0-46.2c0-3,0-6.1,0-9.1c0-1.1-0.2-1.5-1.4-1.5c-2.8,0.1-5.5,0-8.3,0.1c-1,0-1.4-0.1-1.4-1.3
		c0.1-2.1,0.1-4.2,0-6.4c0-1,0.2-1.4,1.3-1.4c10.1,0,20.2,0,30.3,0c1.1,0,1.4,0.3,1.3,1.3c-0.1,2.2-0.1,4.4,0,6.5
		c0,0.9-0.3,1.2-1.2,1.1c-2.6-0.1-5.3,0.1-7.9-0.1c-1.5-0.1-2,0.3-2,1.9C243,25.5,243,34.7,243,43.8L243,43.8z"/>
	<path class="st2" d="M45.2,22.5c9.7,5.6,19.3,11.1,29.1,16.7C64.5,44.9,54.9,50.4,45.2,56C45.2,44.8,45.2,33.8,45.2,22.5L45.2,22.5
		z"/>
</g>
</svg>
